# xmcd
#
# Track frame offsets:
#	150
#	11370
#	22651
#	34575
#	46005
#	56755
#	66089
#	75581
#	85234
#	92906
#	104877
#	113307
#
# Disc length: 1653 seconds
#
# Revision: 1
# Processed by: cddbd v1.5.2PL0 Copyright (c) Steve Scherf et al.
# Submitted via: audiograbber 1.83.01
#
DISCID=8306730c
DTITLE=Fats Domino - Here He Comes Again
DYEAR=1963
DGENRE=Blues/Rock and Roll
TTITLE0=Goin' Home
TTITLE1=Trouble In Mind
TTITLE2=Every Night
TTITLE3=Ain't That A Shame
TTITLE4=Oh Ba-a-by
TTITLE5=Ain't Gonna Do It
TTITLE6=Your Cheatin' Heart
TTITLE7=I Can't Give You Anything But Love
TTITLE8=Along The Navajo Trail
TTITLE9=South Of The Border
TTITLE10=Lil' Liza Jane
TTITLE11=Telling Lies
EXTD=
EXTT0=
EXTT1=
EXTT2=
EXTT3=
EXTT4=
EXTT5=
EXTT6=
EXTT7=
EXTT8=
EXTT9=
EXTT10=
EXTT11=
PLAYORDER=
